<svg width="78" height="78" viewBox="0 0 78 78" fill="none" xmlns="http://www.w3.org/2000/svg">
<path d="M60.966 39.103L55.276 42.389V35.691L49.16 32.16L55.276 28.629V9.543L38.747 0L22.22 9.543V28.629L28.335 32.16L22.22 35.691V42.389L16.53 39.103L0 48.645V67.731L16.53 77.275L33.058 67.731V61.034L38.747 64.321L44.436 61.035V67.732L60.965 77.276L77.492 67.732V48.646L60.966 39.103ZM74.351 64.106L62.536 57.284V43.638L74.351 50.459V64.106ZM52.134 25.002L40.319 18.18V4.534L52.134 11.357V25.002ZM37.177 4.534V18.18L25.361 25.002V11.357L37.177 4.534ZM26.931 27.722L38.747 20.899L50.564 27.722L46.017 30.347L38.747 26.149L31.477 30.346L26.931 27.722ZM42.877 32.16L38.747 34.545L34.618 32.161L38.747 29.776L42.877 32.16ZM38.747 38.172L46.018 33.974L50.565 36.599L38.747 43.421L26.931 36.598L31.477 33.973L38.747 38.172ZM14.959 43.638V57.284L3.141 64.106V50.459L14.959 43.638ZM4.714 66.826L16.53 60.005L28.344 66.826L16.53 73.648L4.714 66.826ZM29.917 64.106L18.101 57.284V43.638L22.22 46.017V54.777L29.917 59.221V64.106ZM29.917 55.593L25.361 52.962V47.828L29.917 50.459V55.593ZM25.361 44.202V39.318L37.177 46.142V59.786L33.058 57.406V48.645L25.361 44.202ZM40.318 59.786V46.143L52.133 39.319V44.203L44.436 48.646V57.407L40.318 59.786ZM52.134 47.828V52.962L47.578 55.593V50.459L52.134 47.828ZM55.275 54.777V46.017L59.395 43.638V57.284L47.578 64.106V59.221L55.275 54.777ZM49.15 66.826L60.965 60.005L72.78 66.826L60.966 73.648L49.15 66.826Z" fill="#61C5AA"/>
</svg>
