<svg width="73" height="73" viewBox="0 0 73 73" fill="none" xmlns="http://www.w3.org/2000/svg">
<path d="M41.947 0L24.052 17.895L30.602 42.339L39.394 44.672L38.467 41.237L33.114 39.826L27.944 20.53L47.242 25.7L52.413 44.998L49.495 44.192L50.423 47.626L55.048 48.891L72.943 30.995L66.391 6.549L41.947 0ZM28.74 17.558L42.865 3.433L62.164 8.601L48.037 22.727L28.74 17.558ZM69.51 30.076L55.382 44.201L50.213 24.902L64.34 10.776L69.51 30.076Z" fill="#A72DA2"/>
<path d="M42.34 30.601L33.498 28.2L34.426 31.635L39.827 33.114L44.998 52.412L25.701 47.242L20.531 27.945L23.425 28.701L22.497 25.267L17.895 24.054L0 41.948L6.55 66.393L30.995 72.943L48.89 55.048L42.34 30.601ZM3.432 42.866L17.559 28.739L22.73 48.037L8.603 62.163L3.432 42.866ZM30.075 69.512L10.777 64.341L24.904 50.213L44.202 55.384L30.075 69.512Z" fill="#A72DA2"/>
</svg>
