<svg width="66" height="68" viewBox="0 0 66 68" fill="none" xmlns="http://www.w3.org/2000/svg">
<path d="M46.506 66.318L62.519 57.073C64.346 56.019 65.724 53.633 65.724 51.522V33.071C65.724 31.777 65.188 30.726 64.253 30.186C63.318 29.646 62.14 29.707 61.02 30.353L56.459 32.982V26.114C56.459 24.004 55.081 21.618 53.254 20.563L48.265 17.682L52.036 15.507C55.242 13.658 55.242 13.658 55.242 12.773C55.242 11.888 55.242 11.887 52.037 10.037L36.023 0.792C34.196 -0.264 31.441 -0.264 29.614 0.792L13.6 10.037C10.395 11.888 10.395 11.888 10.395 12.768C10.395 13.648 10.395 13.648 13.598 15.499L17.372 17.682L12.383 20.563C10.556 21.618 9.178 24.003 9.178 26.114V32.9L4.705 30.315C3.585 29.668 2.406 29.606 1.472 30.145C0.536 30.685 0 31.736 0 33.03V51.49C0 53.6 1.378 55.987 3.205 57.041L19.184 66.267C20.304 66.913 21.484 66.975 22.418 66.435C23.354 65.896 23.89 64.844 23.891 63.551L23.895 58.205L29.614 61.507C31.441 62.562 34.196 62.562 36.023 61.507L41.772 58.188L41.768 63.878C41.768 63.891 41.768 63.903 41.768 63.916C41.768 67.243 41.77 67.246 42.482 67.695L42.584 67.754C43.332 68.149 43.332 68.149 46.506 66.318ZM15.1 12.902C15.022 12.857 14.945 12.813 14.869 12.768C14.945 12.724 15.022 12.68 15.1 12.634L31.114 3.389C32.007 2.873 33.631 2.873 34.523 3.389L50.537 12.634C50.617 12.681 50.696 12.727 50.774 12.772C50.696 12.817 50.617 12.863 50.537 12.909L45.264 15.95L36.024 10.614C34.197 9.559 31.442 9.559 29.615 10.614L20.374 15.95L15.1 12.902ZM13.883 23.161L20.37 19.415L29.595 24.748C31.422 25.804 34.177 25.805 36.004 24.751L45.262 19.413L51.753 23.161C51.825 23.203 51.897 23.26 51.968 23.312L32.801 34.362L13.676 23.308C13.745 23.257 13.813 23.201 13.883 23.161ZM20.891 63.549C20.891 63.636 20.884 63.706 20.875 63.762C20.823 63.742 20.759 63.712 20.684 63.669L4.705 54.443C3.812 53.927 3 52.52 3 51.49V33.03C3 32.945 3.006 32.875 3.015 32.82C3.067 32.841 3.13 32.87 3.203 32.913L9.178 36.367V46.009C9.178 48.119 10.556 50.506 12.383 51.56L20.896 56.475L20.891 63.549ZM31.114 58.91L23.897 54.743L23.904 45.113C23.904 43.004 22.528 40.618 20.703 39.562L12.179 34.634V26.114C12.179 26.051 12.191 25.983 12.197 25.918L31.301 36.96L31.286 58.988C31.229 58.962 31.167 58.94 31.114 58.91ZM34.524 58.91C34.451 58.952 34.367 58.985 34.286 59.02L34.3 36.962L53.442 25.925C53.448 25.987 53.46 26.053 53.46 26.113V34.711L44.989 39.595C43.162 40.649 41.783 43.034 41.781 45.144L41.775 54.722L34.524 58.91ZM44.773 56.456L53.252 51.56C55.08 50.506 56.458 48.12 56.458 46.009V36.447L62.517 32.953C62.592 32.91 62.656 32.88 62.708 32.86C62.717 32.915 62.723 32.985 62.723 33.072V51.522C62.723 52.552 61.911 53.96 61.018 54.475L45.005 63.72C44.925 63.766 44.846 63.812 44.768 63.857L44.773 56.456Z" fill="#4E349F"/>
</svg>
