<svg width="55" height="64" viewBox="0 0 55 64" fill="none" xmlns="http://www.w3.org/2000/svg">
<path d="M27.416 63.312L54.832 47.484V15.827L27.416 0L0 15.827V47.484L27.416 63.312ZM4.884 45.685L14.77 40.103L27.423 47.407L40.05 40.119L49.821 45.76L27.416 58.693L4.884 45.685ZM27.423 19.366L37.185 25.003L27.56 30.543L17.811 24.917L27.423 19.366ZM16.78 26.632L26.416 32.194V43.363L16.78 37.801V26.632ZM28.416 32.357L38.065 26.804V37.799L28.416 43.369V32.357ZM50.832 44.033L41.065 38.394V23.779L28.499 16.523V5.244L50.832 18.136V44.033ZM26.5 5.148V16.434L13.78 23.779V38.364L4 43.886V18.136L26.5 5.148Z" fill="#90C8E2"/>
</svg>
