<svg width="65" height="70" viewBox="0 0 65 70" fill="none" xmlns="http://www.w3.org/2000/svg">
<path d="M32.34 63.341L41.7 57.939L41.709 69.038L64.488 55.887V29.623L54.924 35.136V24.227L45.441 18.751L55.12 13.152L32.34 0L10.922 12.366V13.969L19.218 18.764L9.756 24.227V35.218L0 29.579V55.857L22.747 68.989L22.755 57.806L32.34 63.341ZM40.407 31.061L32.324 35.722L24.154 31L32.228 26.338L40.407 31.061ZM52.198 39.857V48.728L44.424 53.217L44.416 44.342L52.198 39.857ZM33.68 47.352L33.686 38.085L41.69 33.47V42.728L33.68 47.352ZM30.959 38.083L30.953 47.453L22.765 42.727V33.346L30.959 38.083ZM20.037 44.312L20.031 53.087L12.483 48.728V39.945L20.037 44.312ZM22.763 45.875L30.951 50.602L30.945 59.388L22.757 54.659L22.763 45.875ZM33.671 59.424L33.678 50.501L41.691 45.875L41.699 54.789L33.671 59.424ZM61.762 34.341V54.312L44.432 64.318L44.425 56.364L54.924 50.302V38.284L61.762 34.341ZM44.415 41.197V31.899L52.198 27.412V36.71L44.415 41.197ZM50.866 25.032L43.136 29.489L34.999 24.79L42.717 20.326L50.866 25.032ZM32.322 23.189L24.667 18.764L32.339 14.334L39.99 18.752L32.322 23.189ZM14.986 13.168L32.34 3.148L49.67 13.155L42.715 17.178L32.34 11.187L21.944 17.19L14.986 13.168ZM29.55 24.736L21.429 29.425L13.821 25.028L21.943 20.339L29.55 24.736ZM12.483 27.404L20.038 31.772V41.163L12.483 36.795V27.404V27.404ZM20.024 64.27L2.727 54.284V34.305L9.757 38.369V50.303L20.03 56.236L20.024 64.27Z" fill="#61C5AA"/>
</svg>
