<svg width="2280" height="3048" viewBox="0 0 2280 3048" fill="none" xmlns="http://www.w3.org/2000/svg">
<path d="M1935.85 1877.88C2107.3 1696.74 2217.28 1454.13 2230.22 1188.88H1935.85V1877.88Z" fill="white"/>
<path d="M2191.4 836.296H871.624C839.277 836.296 813.399 810.418 813.399 778.07C813.399 745.723 839.277 719.845 871.624 719.845H2149.35C2117 642.211 2078.18 567.812 2029.66 499.883H1062.47C1043.07 541.934 997.779 574.282 946.023 574.282C874.859 574.282 813.399 516.056 813.399 441.657C813.399 367.258 871.624 309.033 946.023 309.033C997.779 309.033 1043.07 338.146 1062.47 383.432H1932.62C1845.28 289.625 1741.77 211.991 1628.55 157H651.662C622.549 169.939 593.437 186.113 567.559 202.286V1072.43H1486.23C1518.57 1072.43 1544.45 1098.31 1544.45 1130.66V1499.42C1612.38 1522.06 1660.9 1586.76 1660.9 1664.39C1660.9 1761.43 1583.27 1839.07 1486.23 1839.07C1389.18 1839.07 1311.55 1761.43 1311.55 1664.39C1311.55 1586.76 1360.07 1522.06 1428 1499.42V1188.88H509.333C476.986 1188.88 451.108 1163 451.108 1130.66V286.39C399.352 328.441 350.831 373.728 308.779 425.484V1784.08H709.887C742.235 1784.08 768.113 1809.95 768.113 1842.3V2159.31C884.563 2201.36 1010.72 2224 1140.11 2224C1327.72 2224 1502.4 2175.48 1657.67 2094.61H1094.82C1062.47 2094.61 1036.6 2068.73 1036.6 2036.38V1518.83H700.183C677.54 1560.88 635.488 1593.23 583.732 1593.23C512.568 1593.23 451.108 1535 451.108 1460.6C451.108 1389.44 509.333 1327.98 583.732 1327.98C635.488 1327.98 680.775 1357.09 700.183 1402.38H1094.82C1127.17 1402.38 1153.05 1428.25 1153.05 1460.6V1978.16H1819.4V1130.66C1819.4 1098.31 1845.28 1072.43 1877.63 1072.43H2230.22C2226.98 991.563 2214.04 910.695 2191.4 836.296Z" fill="white"/>
<path d="M651.662 2107.55V1900.53H367.005C447.873 1981.39 544.916 2052.56 651.662 2107.55Z" fill="white"/>
<path d="M192.329 1670.86V590.456C101.756 748.959 50 933.339 50 1130.66C50 1327.98 101.756 1512.36 192.329 1670.86Z" fill="white"/>
<path d="M712 80L1567 80C1441.57 29.0909 1295.65 -1.1861e-05 1139.5 -1.86866e-05C983.347 -2.55123e-05 837.434 29.0909 712 80Z" fill="white"/>
<path d="M310.791 2905.59C308.024 2943.84 293.864 2973.95 268.311 2995.92C242.92 3017.9 209.391 3028.88 167.725 3028.88C122.152 3028.88 86.263 3013.58 60.0586 2982.98C34.0169 2952.22 20.9961 2910.07 20.9961 2856.52V2834.79C20.9961 2800.61 27.0182 2770.5 39.0625 2744.46C51.1068 2718.42 68.278 2698.48 90.5762 2684.64C113.037 2670.65 139.079 2663.65 168.701 2663.65C209.717 2663.65 242.757 2674.63 267.822 2696.61C292.887 2718.58 307.373 2749.42 311.279 2789.14H238.037C236.247 2766.19 229.818 2749.59 218.75 2739.33C207.845 2728.92 191.162 2723.71 168.701 2723.71C144.287 2723.71 125.977 2732.5 113.77 2750.07C101.725 2767.49 95.5404 2794.59 95.2148 2831.37V2858.23C95.2148 2896.64 100.993 2924.72 112.549 2942.46C124.268 2960.2 142.66 2969.07 167.725 2969.07C190.348 2969.07 207.194 2963.94 218.262 2953.69C229.492 2943.27 235.921 2927.24 237.549 2905.59H310.791ZM648.193 3024H574.951V2871.66H432.129V3024H358.887V2668.53H432.129V2812.57H574.951V2668.53H648.193V3024ZM917.48 2950.76H789.062L764.648 3024H686.768L819.092 2668.53H886.963L1020.02 3024H942.139L917.48 2950.76ZM808.838 2891.43H897.705L853.027 2758.38L808.838 2891.43ZM1291.5 2727.86H1182.62V3024H1109.38V2727.86H1001.95V2668.53H1291.5V2727.86ZM1333.5 3024V2668.53H1458.01C1501.14 2668.53 1533.85 2676.83 1556.15 2693.43C1578.45 2709.87 1589.6 2734.04 1589.6 2765.94C1589.6 2783.36 1585.12 2798.74 1576.17 2812.09C1567.22 2825.27 1554.77 2834.95 1538.82 2841.14C1557.05 2845.7 1571.37 2854.89 1581.79 2868.73C1592.37 2882.56 1597.66 2899.49 1597.66 2919.51C1597.66 2953.69 1586.75 2979.57 1564.94 2997.14C1543.13 3014.72 1512.04 3023.67 1471.68 3024H1333.5ZM1406.74 2869.21V2965.16H1469.48C1486.74 2965.16 1500.16 2961.09 1509.77 2952.96C1519.53 2944.65 1524.41 2933.26 1524.41 2918.78C1524.41 2886.22 1507.57 2869.7 1473.88 2869.21H1406.74ZM1406.74 2817.46H1460.94C1497.88 2816.81 1516.36 2802.08 1516.36 2773.27C1516.36 2757.15 1511.64 2745.6 1502.2 2738.6C1492.92 2731.44 1478.19 2727.86 1458.01 2727.86H1406.74V2817.46ZM1944.82 2854.32C1944.82 2889.32 1938.64 2920 1926.27 2946.36C1913.9 2972.73 1896.16 2993.08 1873.05 3007.4C1850.1 3021.72 1823.73 3028.88 1793.95 3028.88C1764.49 3028.88 1738.2 3021.8 1715.09 3007.64C1691.98 2993.48 1674.07 2973.3 1661.38 2947.1C1648.68 2920.73 1642.25 2890.46 1642.09 2856.28V2838.7C1642.09 2803.7 1648.36 2772.94 1660.89 2746.41C1673.58 2719.72 1691.41 2699.29 1714.36 2685.13C1737.47 2670.81 1763.83 2663.65 1793.46 2663.65C1823.08 2663.65 1849.37 2670.81 1872.31 2685.13C1895.43 2699.29 1913.25 2719.72 1925.78 2746.41C1938.48 2772.94 1944.82 2803.62 1944.82 2838.45V2854.32ZM1870.61 2838.21C1870.61 2800.94 1863.93 2772.62 1850.59 2753.25C1837.24 2733.88 1818.2 2724.2 1793.46 2724.2C1768.88 2724.2 1749.92 2733.8 1736.57 2753C1723.23 2772.05 1716.47 2800.04 1716.31 2836.99V2854.32C1716.31 2890.62 1722.98 2918.78 1736.33 2938.79C1749.67 2958.81 1768.88 2968.82 1793.95 2968.82C1818.52 2968.82 1837.4 2959.22 1850.59 2940.02C1863.77 2920.65 1870.44 2892.49 1870.61 2855.54V2838.21ZM2244.63 2727.86H2135.74V3024H2062.5V2727.86H1955.08V2668.53H2244.63V2727.86Z" fill="white"/>
</svg>
