<svg width="2280" height="528" viewBox="0 0 2280 528" fill="none" xmlns="http://www.w3.org/2000/svg">
<path fill-rule="evenodd" clip-rule="evenodd" d="M76.1679 27.5612C76.1679 15.9403 78.1134 13.9948 105.246 13.9948C155.634 13.9948 178.889 46.9381 178.889 83.7592C178.889 112.837 167.268 130.282 155.634 138.025C142.067 149.659 124.623 149.659 109.124 149.659C85.8693 149.659 80.0458 149.659 78.1133 147.726C76.1679 145.794 76.1679 141.903 76.1679 134.16V27.5612ZM39.3597 231.044C39.3597 277.553 39.3597 283.39 12.2269 287.255L2.52551 289.187C-1.35245 291.133 0.593018 298.889 2.52551 298.889H112.989C114.922 298.889 116.867 291.133 112.989 289.187L103.288 287.268C78.1004 283.39 76.1549 277.566 76.1549 231.057V174.859C76.1549 165.17 78.1004 163.238 97.4772 163.238C116.854 163.238 122.665 169.048 130.421 178.737C143.987 198.114 161.431 229.124 173.052 246.569C206.008 291.159 229.25 302.78 266.071 302.78C275.773 302.78 281.583 302.78 287.394 300.834C289.326 298.915 287.394 295.037 285.461 295.037C273.84 293.091 262.206 289.213 254.45 281.457C225.372 256.27 200.185 221.381 165.296 163.238C163.364 159.36 159.486 153.549 163.364 151.617C184.686 141.916 219.562 118.661 219.562 76.0292C219.562 45.0185 202.117 25.6416 180.795 14.0077C161.418 2.38684 134.286 0.441406 107.153 0.441406C62.5756 0.441406 31.5649 2.37395 6.36457 4.31941C2.48661 6.25191 2.48661 12.0753 6.36457 15.9403H19.931C39.3208 19.8182 39.3208 27.5612 39.3208 70.2057V231.044H39.3597ZM428.894 293.065C353.306 293.065 326.173 219.423 326.173 163.225C326.173 77.9488 378.506 50.816 417.26 50.816C490.902 50.816 519.981 120.58 519.981 182.602C519.981 258.19 475.403 293.065 428.894 293.065ZM425.016 304.699C498.658 304.699 556.802 248.501 556.802 170.981C556.802 103.149 512.212 39.195 425.016 39.195C345.55 39.195 287.42 99.271 287.42 174.859C287.42 242.678 339.74 304.699 425.016 304.699ZM671.143 304.699C638.2 304.699 616.878 295.024 611.067 289.2C605.257 281.444 601.379 254.325 599.446 236.867C601.379 232.989 607.202 232.989 609.135 234.935C614.945 254.325 630.457 293.078 675.021 293.078C707.977 293.078 723.476 271.769 723.476 248.501C723.476 231.057 719.598 213.625 692.465 194.236L655.644 170.981C636.267 159.36 613.013 136.092 613.013 105.081C613.013 70.1928 642.078 39.1821 692.465 39.1821C704.099 39.1821 717.666 41.1146 727.341 44.9925C733.164 46.925 737.042 46.925 740.907 46.925C744.785 56.6135 748.663 77.9357 748.663 93.4346C746.731 95.3671 740.907 97.3126 738.975 95.3671C733.165 75.9903 723.476 50.7901 686.642 50.7901C647.875 50.7901 640.132 75.9903 640.132 93.4346C640.132 116.689 659.509 132.201 673.076 141.877L704.099 159.321C727.341 174.82 750.609 198.075 750.609 232.963C750.609 275.634 719.598 304.699 671.143 304.699ZM849.451 103.149C849.451 64.3823 849.451 58.5719 826.197 54.6939H820.386C818.454 52.7614 818.454 45.0055 820.386 45.0055H988.993C992.871 50.8159 994.817 77.9617 996.749 95.393C994.817 97.3255 988.993 99.271 987.048 95.393C981.237 77.9487 977.359 64.3824 957.982 60.5044C950.227 58.5719 936.66 58.5719 919.229 58.5719H892.096C880.462 58.5719 880.462 58.5719 880.462 72.1383V149.672C880.462 159.36 882.408 159.36 894.029 159.36H915.351C932.795 159.36 944.416 159.36 948.294 157.427C954.104 155.482 956.05 153.549 957.982 143.861L961.86 128.349C961.86 126.417 969.616 126.417 971.549 128.349C971.549 138.038 969.616 153.549 969.616 167.116C969.616 180.682 971.549 196.181 971.549 203.937C969.616 207.815 961.86 207.815 959.928 203.937L957.969 190.358C956.037 182.602 954.091 176.791 946.349 174.859C940.538 172.926 930.85 172.926 915.338 172.926H894.016C882.395 172.926 880.449 172.926 880.449 182.615V236.88C880.449 258.203 882.395 271.782 888.205 277.579C892.083 281.457 901.771 285.335 934.715 285.335C963.793 285.335 975.414 285.335 983.17 281.457C990.926 277.579 1000.61 264.013 1010.3 242.704C1014.18 240.771 1018.06 242.704 1019.99 246.582C1018.06 260.148 1008.37 289.213 1002.55 298.915H814.563C810.685 298.915 810.685 291.159 812.617 289.213H826.184C847.506 287.294 849.438 281.457 849.438 240.771V103.149H849.451ZM1023.87 52.7484C1021.94 50.8159 1021.94 44.9925 1025.8 44.9925H1107.2C1111.08 44.9925 1111.08 50.803 1109.13 52.7484L1099.44 54.681C1091.69 54.681 1087.82 56.6134 1087.82 60.4914C1087.82 66.3018 1095.58 85.6787 1107.2 112.824C1128.52 159.334 1151.76 207.789 1173.1 254.299C1182.8 234.909 1192.48 213.599 1202.18 192.277C1206.06 186.467 1207.97 178.711 1207.97 176.778C1209.92 174.846 1207.97 172.9 1206.06 167.09C1192.64 136.359 1178.41 105.987 1163.4 76.0033C1157.6 64.3694 1151.78 54.681 1140.16 54.681L1130.47 52.7484C1126.59 50.8159 1128.53 44.9925 1130.47 44.9925H1213.81C1215.73 44.9925 1217.69 50.803 1213.81 52.7484L1204.11 54.681C1190.56 54.681 1188.61 58.559 1196.35 76.0033C1204.11 93.4476 1215.73 118.635 1225.43 141.89C1233.19 126.391 1240.93 112.824 1248.69 91.5022C1262.24 58.546 1260.31 54.681 1248.69 54.681L1237.07 52.7484C1235.12 48.8705 1235.12 44.9925 1237.07 44.9925H1310.71C1312.63 44.9925 1312.63 50.803 1310.71 52.7484L1301.01 54.681C1283.58 54.681 1277.75 72.1253 1268.08 87.6242C1260.32 103.136 1244.82 136.079 1239 149.646C1237.08 153.524 1235.12 157.401 1235.12 159.334L1239 167.09C1250.62 196.155 1264.2 225.233 1277.75 254.299C1289.37 227.166 1301.01 201.966 1310.71 174.846C1318.46 155.456 1339.79 105.081 1341.72 97.3256C1347.54 83.7592 1353.34 68.2473 1353.34 62.4498C1353.34 58.5719 1349.46 54.6939 1341.72 54.6939L1330.1 52.7615C1326.22 50.829 1326.22 45.0055 1330.1 45.0055H1401.81C1405.69 45.0055 1405.69 50.816 1403.73 52.7615L1395.97 54.6939C1376.59 56.6264 1372.72 68.2603 1351.41 120.593L1322.33 186.493C1306.83 225.259 1291.32 262.08 1275.82 302.78C1273.87 304.699 1271.94 304.699 1270 304.699C1268.08 304.699 1266.12 304.699 1264.2 302.78C1252.58 269.823 1231.24 221.368 1217.69 194.236C1204.11 221.368 1180.85 271.769 1171.18 302.78C1169.23 304.699 1167.28 304.699 1165.36 304.699C1163.41 304.699 1161.48 304.699 1159.56 302.78C1153.74 287.281 1138.22 252.379 1134.35 240.758C1109.16 188.425 1085.9 136.105 1060.7 81.8397C1052.95 66.3278 1049.08 56.6394 1033.57 54.7069L1023.87 52.7484ZM1547.15 293.065C1471.56 293.065 1444.43 219.423 1444.43 163.225C1444.43 77.9488 1496.76 50.816 1535.51 50.816C1609.16 50.816 1638.23 120.58 1638.23 182.602C1638.23 258.19 1593.64 293.065 1547.15 293.065ZM1543.27 304.699C1616.91 304.699 1675.04 248.501 1675.04 170.981C1675.04 103.149 1630.45 39.195 1543.27 39.195C1463.8 39.195 1405.67 99.271 1405.67 174.859C1405.66 242.678 1457.99 304.699 1543.27 304.699ZM1853.35 293.065C1777.76 293.065 1750.63 219.423 1750.63 163.225C1750.63 77.9488 1802.96 50.816 1841.72 50.816C1915.36 50.816 1944.41 120.58 1944.41 182.602C1944.41 258.19 1899.86 293.065 1853.35 293.065ZM1849.47 304.699C1923.11 304.699 1981.25 248.501 1981.25 170.981C1981.25 103.149 1938.61 39.195 1849.47 39.195C1770.01 39.195 1711.88 99.271 1711.88 174.859C1711.88 242.678 1764.18 304.699 1849.47 304.699ZM2080.09 91.5151C2080.09 74.0708 2080.09 64.3823 2083.97 62.4498C2087.84 58.5719 2099.46 56.6264 2122.72 56.6264C2221.56 56.6264 2242.87 128.336 2242.87 169.035C2242.87 240.745 2209.94 289.187 2134.35 289.187C2111.1 289.187 2095.6 285.309 2087.84 273.688C2082.05 264 2080.09 252.366 2080.09 231.044V91.5151ZM2049.09 240.745C2049.09 281.444 2047.14 285.322 2025.83 289.187H2016.13C2014.21 291.133 2016.13 298.889 2018.08 298.889H2066.51C2078.13 298.889 2103.34 300.808 2128.54 300.808C2157.59 300.808 2188.61 296.93 2213.81 283.377C2256.44 258.177 2279.69 217.464 2279.69 169.022C2279.69 118.635 2254.49 74.0578 2202.17 56.6135C2178.92 46.9251 2151.78 44.9925 2118.83 44.9925C2085.9 44.9925 2054.86 44.9925 2021.93 46.925C2018.05 48.8575 2019.99 54.681 2021.93 56.6135L2031.61 58.546C2047.11 60.4785 2049.06 68.2344 2049.06 95.3671V240.745H2049.09ZM103.301 428.742C103.301 417.121 103.301 407.407 101.368 405.487C98.7193 403.057 95.2739 401.678 91.6797 401.609L87.8018 399.664C85.8693 399.664 85.8693 397.718 87.8018 397.718H132.379C134.312 397.718 134.312 399.664 132.379 399.664L130.447 401.609C124.636 401.609 122.691 403.529 120.758 405.487C118.826 407.407 118.826 417.108 118.826 428.742V450.051C118.826 455.875 118.826 455.875 126.582 455.875H184.712C192.468 455.875 194.4 455.875 194.4 450.051V428.742C194.4 417.121 192.468 407.407 190.535 405.487C188.603 403.542 184.712 401.609 182.78 401.609L178.902 399.664C176.969 399.664 176.969 397.718 178.902 397.718H223.479C223.479 397.718 225.411 399.664 223.479 399.664L219.601 401.609C217.668 401.609 211.845 403.529 209.912 405.487C207.98 407.407 207.98 417.108 207.98 428.742V494.628C207.98 506.249 207.98 515.938 209.912 519.803C211.845 521.748 217.668 521.748 219.601 521.748L223.479 523.668C225.411 523.668 225.411 525.613 223.479 525.613H178.902C176.969 525.613 176.969 523.668 178.902 523.668L182.78 521.748C186.657 521.748 188.603 521.748 190.535 517.87C192.468 515.925 194.4 506.249 194.4 494.615V467.483C194.4 461.659 192.468 461.659 184.712 461.659H126.569C118.813 461.659 118.813 461.659 118.813 467.483V494.615C118.813 506.236 118.813 515.925 120.745 517.87C122.678 521.748 126.556 521.748 130.434 521.748L136.244 523.668V525.613H89.7213C87.7888 525.613 87.7888 523.668 89.7213 523.668H91.6667C95.5447 521.748 99.4097 521.748 101.355 517.87C103.288 515.925 103.288 506.249 103.288 494.615V428.742H103.301ZM331.997 415.163C366.885 415.163 378.506 446.173 378.506 473.293C378.506 510.127 359.116 523.681 335.875 523.681C302.918 523.681 291.298 490.75 291.298 465.55C291.298 426.796 314.552 415.163 331.997 415.163ZM335.875 411.285C300.986 411.285 275.799 436.485 275.799 471.374C275.799 500.426 297.121 527.559 335.875 527.559C368.818 527.559 394.005 504.304 394.005 469.428C394.005 438.417 374.628 411.285 335.875 411.285ZM523.858 413.243H535.479C537.412 413.243 537.412 411.298 539.357 409.339H541.29C539.357 417.121 537.412 430.674 539.357 434.539H535.479C533.547 428.742 533.547 424.864 531.601 422.918C525.778 419.041 519.98 417.121 510.279 417.121H498.658C494.78 417.121 494.78 417.121 494.78 424.877V498.519C494.78 508.195 494.78 517.896 496.713 519.829C498.645 521.774 502.536 521.774 504.469 523.707H510.279V525.652H463.77V523.707L471.525 521.787C473.458 521.787 477.336 521.787 479.281 519.842C481.214 517.922 481.214 508.221 481.214 498.532V424.89C481.214 417.134 481.214 417.134 475.403 417.134H465.715C456.027 417.134 448.271 419.054 444.393 422.932C440.515 426.81 438.582 430.687 436.637 434.552C436.637 434.552 434.704 434.552 432.759 432.633C436.637 426.809 438.569 415.176 440.515 409.352H442.447C442.447 411.298 444.38 411.298 446.325 413.256H523.858V413.243ZM599.446 440.376C599.446 428.755 599.446 422.919 597.514 420.999C595.581 419.054 593.636 417.121 589.758 417.121L587.825 415.176C585.893 415.176 585.893 413.256 587.825 413.256H661.468C661.468 417.134 663.413 428.755 663.413 434.565C663.413 434.565 661.468 436.511 661.468 434.565C659.535 426.809 655.657 421.012 647.901 419.067C644.023 419.067 638.213 417.147 630.457 417.147H620.769C614.958 417.147 614.958 419.067 614.958 419.067C613.026 421.012 613.026 424.89 613.026 432.646V459.779C613.026 463.657 613.026 465.576 618.836 465.576H628.524C634.335 465.576 640.145 463.657 644.023 463.657C645.956 463.657 645.956 461.711 647.901 457.833L649.847 450.077C649.847 450.077 651.779 450.077 653.712 452.023C653.712 453.942 651.779 461.698 651.779 467.522C651.779 473.319 653.712 481.075 653.712 483.02C651.779 484.94 649.847 484.94 649.847 484.94L647.901 477.184C645.969 473.306 645.969 471.386 644.023 471.386C640.145 469.441 634.335 469.441 628.524 469.441H618.836C613.026 469.441 613.026 469.441 613.026 475.265V498.519C613.026 506.275 613.026 514.018 616.904 517.896C618.836 519.816 620.782 521.774 636.28 521.774C655.657 521.774 663.413 519.829 671.156 502.397H675.034C673.102 508.195 671.156 521.774 667.291 525.652H583.947C582.015 525.652 582.015 523.707 583.947 523.707L589.758 521.787C593.636 521.787 595.568 519.842 597.514 519.842C599.446 515.964 599.446 508.221 599.446 498.532V440.376ZM744.798 498.506C744.798 506.262 744.798 514.005 748.676 517.883C750.609 519.803 752.554 521.761 768.053 521.761C787.43 521.761 793.24 519.816 800.996 502.384H802.929C802.929 508.182 799.051 521.761 797.118 525.639H717.653C715.707 525.639 715.707 523.694 717.653 523.694L721.531 521.774C725.409 521.774 729.274 521.774 729.274 519.829C731.206 515.951 733.152 508.208 733.152 498.519V440.389C733.152 430.687 731.206 422.932 729.274 419.054C729.274 417.134 725.409 417.134 721.531 417.134L717.653 415.189C715.707 415.189 715.707 413.269 717.653 413.269H758.352C760.284 413.269 760.284 415.189 760.284 415.189L756.406 417.134C752.528 417.134 748.65 417.134 746.718 419.054C744.785 422.932 744.785 430.674 744.785 440.389V498.506H744.798ZM901.771 413.243H907.582C909.514 419.041 911.46 428.742 911.46 434.552H907.582C905.649 426.796 899.826 415.176 884.327 415.176C866.883 415.176 863.005 428.755 863.005 434.552C863.005 446.173 872.706 452.01 878.504 455.888L894.003 465.563C901.759 471.387 911.447 481.062 911.447 496.574C911.447 515.951 897.881 527.584 876.558 527.584C862.992 527.584 855.236 523.707 851.371 521.787C849.438 517.909 847.493 508.208 847.493 498.532H849.425C853.303 508.208 861.046 523.707 880.436 523.707C894.003 523.707 901.759 514.031 901.759 502.397C901.759 494.641 899.826 486.898 886.26 479.143L872.693 469.441C861.059 463.644 853.303 453.942 853.303 440.389C853.303 424.89 864.924 411.311 886.26 411.311C892.083 411.285 897.894 411.285 901.771 413.243ZM1060.69 463.631C1072.31 471.386 1089.76 488.805 1095.57 504.317C1089.76 512.073 1080.07 519.816 1066.5 519.816C1051 519.816 1041.3 506.262 1041.3 492.683C1041.31 481.049 1049.07 471.374 1060.69 463.631ZM1062.64 527.559C1076.2 527.559 1089.77 517.883 1097.51 508.182C1101.39 510.127 1105.27 521.761 1109.13 523.681C1111.06 525.626 1118.82 527.559 1126.58 527.559C1136.26 527.559 1145.95 525.639 1153.71 515.938C1153.71 515.938 1153.71 514.018 1151.76 514.018C1147.9 517.896 1142.09 519.816 1136.26 519.816C1128.52 519.816 1120.77 517.896 1111.08 504.317C1108.68 502.111 1106.71 499.481 1105.27 496.561C1114.96 483.007 1122.71 473.306 1124.64 467.509C1130.47 459.753 1134.33 453.929 1136.26 452.01C1138.2 450.064 1140.14 450.064 1142.09 448.132L1151.76 446.186V444.267H1114.96C1113.02 446.186 1113.02 446.186 1114.96 448.145H1120.77C1124.64 448.145 1124.64 450.064 1124.64 450.064C1124.64 452.01 1124.64 455.888 1120.77 461.685C1116.89 471.387 1111.08 481.062 1103.32 492.696C1093.63 475.265 1082 465.563 1072.31 457.82C1078.12 452.023 1087.81 446.199 1087.81 436.511C1087.81 426.809 1078.12 417.134 1066.49 417.134C1054.85 417.134 1043.23 426.809 1043.23 440.389C1043.23 448.145 1049.06 455.888 1056.8 459.766C1043.23 469.441 1029.67 481.075 1029.67 496.574C1029.67 512.073 1039.37 527.559 1062.64 527.559ZM1068.45 453.916C1060.69 450.038 1052.95 444.241 1052.95 434.539C1052.95 426.784 1058.76 420.986 1064.57 420.986C1074.26 420.986 1078.13 428.742 1078.13 436.485C1078.13 442.295 1074.26 450.051 1068.45 453.916ZM1275.82 413.243C1275.82 407.42 1275.82 403.542 1277.74 403.542C1279.68 401.622 1283.56 401.622 1289.36 401.622C1310.7 401.622 1320.4 417.121 1320.4 432.633C1320.4 448.145 1316.49 453.942 1310.7 457.807C1304.9 461.672 1297.12 463.631 1289.36 463.631C1281.6 463.631 1277.74 461.685 1277.74 461.685C1275.82 461.685 1275.82 459.766 1275.82 455.888V413.243ZM1262.24 494.628C1262.24 506.249 1260.32 515.938 1258.36 517.883C1256.44 521.761 1252.56 521.761 1250.61 521.761L1244.81 523.681V525.626H1291.32C1293.24 525.626 1293.24 523.681 1291.32 523.681L1287.44 521.761C1285.49 521.761 1281.62 521.761 1279.68 517.883C1277.74 515.938 1275.81 506.262 1275.81 494.628V473.293C1275.81 467.496 1275.81 467.496 1287.43 467.496C1295.18 467.496 1297.1 469.415 1299.05 473.293C1306.8 482.994 1314.55 496.548 1318.43 504.304C1332 523.681 1341.68 527.559 1359.14 527.559H1368.81V523.681C1361.06 523.681 1357.19 523.681 1353.31 519.803C1339.76 508.182 1330.06 492.67 1314.56 467.496C1312.61 465.55 1312.61 463.618 1312.61 461.672C1322.32 459.753 1337.81 448.119 1337.81 430.661C1337.81 417.108 1330.06 407.407 1320.38 403.529C1312.6 397.705 1300.98 397.705 1289.35 397.705C1273.85 397.705 1262.21 397.705 1246.72 399.651C1244.8 399.651 1244.8 401.596 1246.72 401.596H1250.59C1256.42 403.516 1258.35 405.474 1260.29 407.394C1260.29 409.313 1262.21 417.095 1262.21 428.729V494.628H1262.24ZM1421.17 440.376C1421.17 428.755 1421.17 422.919 1419.23 420.999C1417.31 419.054 1415.35 417.121 1411.47 417.121L1407.59 415.176V413.256H1483.19C1483.19 417.134 1483.19 428.755 1485.14 434.565C1485.14 434.565 1483.19 436.511 1481.23 434.565C1479.32 426.809 1477.38 421.012 1467.68 419.067C1463.8 419.067 1458.01 417.147 1452.18 417.147H1442.48C1436.68 417.147 1434.72 419.067 1434.72 419.067V459.779C1434.72 463.657 1434.73 465.576 1438.6 465.576H1448.3C1456.06 465.576 1461.86 463.657 1463.8 463.657C1465.72 463.657 1467.68 461.711 1469.63 457.833V450.077C1471.55 450.077 1473.5 450.077 1473.5 452.023V483.02C1473.5 484.94 1471.56 484.94 1469.63 484.94L1467.68 477.184C1467.68 473.306 1465.74 471.386 1463.8 471.386C1461.86 469.441 1456.05 469.441 1448.3 469.441H1438.59C1434.71 469.441 1434.71 469.441 1434.71 475.265V498.519C1434.71 506.275 1434.71 514.018 1436.66 517.896C1438.58 519.816 1442.46 521.774 1456.03 521.774C1477.37 521.774 1485.11 519.829 1492.87 502.397H1494.79C1494.79 508.195 1490.91 521.774 1488.99 525.652H1403.7V523.707L1411.46 521.787C1413.4 521.787 1417.28 519.842 1419.21 519.842C1421.16 515.964 1421.16 508.221 1421.16 498.532V440.376H1421.17ZM1593.64 413.243H1599.44C1601.39 419.041 1603.32 428.742 1603.32 434.552H1599.44C1597.52 426.796 1591.69 415.176 1576.19 415.176C1558.75 415.176 1554.88 428.755 1554.88 434.552C1554.88 446.173 1564.55 452.01 1570.38 455.888L1585.87 465.563C1593.63 471.387 1605.25 481.062 1605.25 496.574C1605.25 515.951 1589.75 527.584 1568.42 527.584C1554.86 527.584 1547.11 523.707 1543.24 521.787C1541.3 517.909 1539.37 508.208 1539.37 498.532H1541.28C1545.16 508.208 1552.91 523.707 1572.3 523.707C1585.87 523.707 1593.63 514.031 1593.63 502.397C1593.63 494.641 1591.69 486.898 1578.13 479.143L1564.55 469.441C1554.88 463.644 1545.18 453.942 1545.18 440.389C1545.18 424.89 1556.8 411.311 1578.13 411.311C1583.94 411.285 1589.78 411.285 1593.64 413.243ZM1713.8 415.163C1748.67 415.163 1760.31 446.173 1760.31 473.293C1760.31 510.127 1740.93 523.681 1717.67 523.681C1684.74 523.681 1673.11 490.75 1673.11 465.55C1673.11 426.796 1696.36 415.163 1713.8 415.163ZM1717.67 411.285C1682.8 411.285 1657.61 436.485 1657.61 471.374C1657.61 500.426 1678.92 527.559 1717.67 527.559C1750.63 527.559 1775.8 504.304 1775.8 469.428C1775.8 438.417 1754.51 411.285 1717.67 411.285ZM1849.47 426.796C1849.47 420.999 1849.47 419.041 1851.39 419.041C1851.39 417.121 1857.22 417.121 1861.09 417.121C1880.47 417.121 1888.23 430.674 1888.23 444.254C1888.23 455.875 1884.35 461.685 1880.47 465.563C1874.65 469.441 1868.85 471.386 1861.09 471.386C1853.34 471.386 1851.39 469.441 1849.47 469.441V426.796ZM1835.89 498.506C1835.89 508.182 1835.89 515.938 1833.97 519.816C1832.03 521.761 1828.15 521.761 1826.22 523.694H1822.34V525.639H1863.03V523.694H1859.15C1857.23 521.774 1853.35 521.774 1851.39 519.816C1849.47 515.938 1849.47 508.195 1849.47 498.506V479.129C1849.47 475.251 1849.47 475.252 1859.15 475.252C1864.97 475.252 1866.9 477.171 1870.77 481.049C1876.59 488.805 1882.39 500.426 1886.27 506.249C1899.85 523.681 1907.6 527.559 1923.1 527.559H1930.86V523.681C1925.03 523.681 1921.16 523.681 1917.28 519.803C1905.66 510.127 1895.97 496.548 1882.4 475.239C1882.4 473.293 1880.48 471.361 1882.4 469.415C1890.16 467.496 1903.74 457.794 1903.74 442.282C1903.74 430.661 1895.98 422.906 1888.24 419.028C1880.5 415.15 1870.78 413.23 1861.11 413.23C1847.53 413.23 1835.91 413.23 1824.27 415.15C1822.35 415.15 1822.35 417.095 1822.35 417.095H1828.15C1832.03 417.095 1833.97 419.015 1833.97 420.973C1835.89 424.851 1835.89 430.648 1835.89 440.35V498.506ZM2045.21 413.243H2056.83C2058.75 413.243 2058.75 411.298 2060.71 409.339H2062.63C2060.71 417.121 2060.71 430.674 2060.71 434.539H2056.83C2056.83 428.742 2054.89 424.864 2052.95 422.918C2049.08 419.041 2041.33 417.121 2033.58 417.121H2021.96C2016.13 417.121 2016.13 417.121 2016.13 424.877V498.519C2016.13 508.195 2016.13 517.896 2018.08 519.829C2020 521.774 2023.88 521.774 2025.83 523.707H2031.63V525.652H1985.12V523.707L1992.88 521.787C1996.76 521.787 1998.7 521.787 2000.63 519.842C2002.58 517.922 2002.58 508.221 2002.58 498.532V424.89C2002.58 417.134 2002.58 417.134 1996.76 417.134H1987.08C1977.38 417.134 1969.62 419.054 1965.75 422.932C1961.87 426.81 1959.95 430.687 1957.99 434.552C1957.99 434.552 1956.07 434.552 1956.07 432.633C1957.99 426.809 1961.87 415.176 1961.87 409.352H1963.81C1963.81 411.298 1965.73 411.298 1967.69 413.256H2045.21V413.243ZM2163.43 413.243H2169.23C2171.17 419.041 2171.17 428.742 2171.17 434.552H2169.23C2165.35 426.796 2161.47 415.176 2144.05 415.176C2128.56 415.176 2124.68 428.755 2124.68 434.552C2124.68 446.173 2132.43 452.01 2140.18 455.888L2155.68 465.563C2163.43 471.387 2173.11 481.062 2173.11 496.574C2173.11 515.951 2159.55 527.584 2138.23 527.584C2124.68 527.584 2116.92 523.707 2113.06 521.787C2109.18 517.909 2107.23 508.208 2107.23 498.532H2111.11C2113.06 508.208 2122.73 523.707 2140.19 523.707C2155.69 523.707 2161.5 514.031 2161.5 502.397C2161.5 494.641 2159.58 486.898 2147.95 479.143L2132.45 469.441C2122.75 463.644 2114.99 453.942 2114.99 440.389C2114.99 424.89 2126.61 411.311 2147.95 411.311C2151.81 411.285 2159.55 411.285 2163.43 413.243Z" fill="black"/>
</svg>
