<svg width="2500" height="437" viewBox="0 0 2500 437" fill="none" xmlns="http://www.w3.org/2000/svg">
<path d="M2487.65 220.09C2487.65 103.281 2381.59 12.6575 2251.38 12.6575C2125.27 12.6575 2014.49 99.1009 2014.49 213.764C2014.49 321.942 2101.5 408.589 2218.69 422.371V356.895C2142.03 344.265 2084.08 286.99 2084.08 218.079C2084.08 139.95 2158.57 76.5072 2250.48 76.5072C2342.39 76.5072 2416.9 139.95 2416.9 218.079C2416.9 286.47 2359.88 343.361 2284.08 356.578V422.168C2396.57 408.499 2487.65 325.06 2487.65 220.09V220.09ZM1736.88 360.826C1664.58 360.826 1603.01 321.694 1580.08 266.859H1506.06C1530.55 361.323 1626.74 424.337 1740.99 424.337C1767.49 424.337 1798.04 421.738 1823.37 415.412C1880.58 401.269 1943.02 364.102 1943.02 305.449V201.315H1736.16L1735.93 266.859H1876.87V296.615C1876.87 329.489 1827.8 348.512 1797.72 355.178C1781.57 358.77 1760.78 360.826 1744.09 360.826H1736.88ZM1877.03 132.54C1845.65 99.9821 1797.25 79.1281 1742.98 79.1281C1656.4 79.1281 1584.82 132.314 1573.39 201.315H1500.87C1510.33 94.2207 1619.91 15.2784 1743.88 15.2784C1817.65 15.2784 1883.85 42.7297 1928.47 86.9003L1877.03 132.54V132.54ZM1098.72 23.8866H1031.71V415.593H1097.59V122.892L1367.61 415.593H1416.68V367.966L1098.72 23.8866ZM1416.68 23.8866H1350.78V214.125L1416.68 280.257V23.9092V23.8866ZM837.991 294.129L898.768 415.593H978.004L779.225 23.9092H707.806L707.761 24.0221L807.286 231.726H675.045L709.591 164.035L673.599 90.4249L506.113 415.593H580.152L642.804 294.175L838.014 294.152L837.991 294.129ZM78.776 23.9092H12.3506V415.593H78.2111V146.299L227.759 385.408L265.852 324.405L78.7986 23.9092H78.776ZM263.095 207.731L301.007 267.853L377.261 146.299V415.57H442.963V23.9092H375.928L263.095 207.731" fill="black"/>
</svg>
