<svg width="2500" height="839" viewBox="0 0 2500 839" fill="none" xmlns="http://www.w3.org/2000/svg">
<path d="M1249.15 0.15918C1109.6 0.15918 996.462 105.839 996.462 236.196C996.462 350.554 1083.53 445.909 1199.13 467.597C1221.78 472.248 1235.4 477.693 1242.29 487.531C1258.98 460.032 1257.01 373.645 1257.01 346.146C1257.01 322.598 1271.73 330.452 1284.49 337.316L1338.5 365.791C1341.44 351.058 1360.1 350.081 1371.88 354.992L1394.46 360.88L1383.64 338.292C1375.79 323.574 1379.71 311.784 1388.54 306.888L1369.9 292.155C1355.17 282.333 1363.98 272.511 1384.64 264.656L1418.01 248.962C1398.39 235.235 1412.1 219.495 1420.95 207.721L1439.62 183.181L1397.42 182.19C1376.77 180.237 1371.88 173.359 1371.88 160.593L1329.64 189.068C1310.01 201.834 1297.24 189.068 1299.21 166.495L1306.07 113.465C1286.44 124.278 1273.68 110.537 1268.78 96.7794C1268.78 96.7794 1254.05 68.3043 1249.15 53.5863C1244.24 68.3043 1229.52 96.7794 1229.52 96.7794C1224.61 110.537 1211.85 124.278 1192.2 113.465L1199.1 166.495C1201.05 189.068 1188.3 201.834 1168.65 189.068L1126.44 160.593C1126.44 173.359 1121.53 180.237 1100.91 182.19L1058.69 183.181L1077.34 207.721C1086.19 219.495 1099.93 235.22 1080.29 248.962L1113.67 264.656C1134.29 272.511 1143.14 282.333 1128.4 292.155L1109.74 306.888C1118.58 311.784 1122.5 323.574 1114.65 338.292L1103.85 360.88L1126.44 354.992C1138.21 350.081 1156.86 351.058 1159.81 365.791L1213.8 337.316C1226.57 330.452 1241.3 322.598 1241.3 346.146C1241.3 370.687 1245.39 426.951 1227.65 443.499C1115.04 433.341 1027 344.408 1027 236.196C1027 121.167 1126.47 27.9327 1249.15 27.9327C1371.84 27.9327 1471.28 121.167 1471.28 236.196C1471.28 343.447 1385.81 431.77 1274.65 443.209L1274.97 471.028C1402.4 458.934 1501.85 358.409 1501.85 236.196C1501.86 105.839 1388.71 0.15918 1249.15 0.15918ZM2500 830.407C2495.01 823.436 2488.56 813.492 2485.07 804.555L2440.82 688.672C2438.34 681.701 2437.83 670.766 2437.83 666.297H2365.74C2365.74 672.261 2366.7 683.181 2362.75 692.149L2313.5 810.503C2310.53 817.473 2307.05 821.942 2300.57 830.407H2348.31L2359.74 798.561H2433.85L2433.87 797.996L2444.79 830.407H2500V830.407ZM2369.69 771.718L2398.53 693.14L2425.01 771.718H2369.69V771.718ZM1863.42 688.672C1860.95 681.701 1860.46 670.766 1860.46 666.297H1788.34C1788.34 672.261 1789.33 683.181 1785.35 692.149L1736.11 810.503C1733.12 817.473 1729.66 821.942 1723.18 830.407H1770.93L1782.37 798.561H1856.45L1856.51 798.118L1867.42 830.407H1922.6C1917.64 823.436 1911.16 813.492 1907.68 804.555L1863.42 688.672V688.672ZM1792.32 771.718L1821.17 693.14L1847.63 771.718H1792.32ZM1271.3 688.672C1268.81 681.701 1268.32 670.766 1268.32 666.297H1196.2C1196.2 672.261 1197.21 683.181 1193.23 692.149L1143.98 810.503C1141 817.473 1137.51 821.942 1131.06 830.407H1178.8L1190.22 798.561H1264.33L1255.38 771.718H1200.18L1229.02 693.14L1275.28 830.407H1330.48C1325.5 823.436 1319.04 813.492 1315.54 804.555L1271.3 688.672V688.672ZM140.24 688.672C137.754 681.701 137.251 670.766 137.251 666.297H65.1557C65.1557 672.261 66.1471 683.181 62.1664 692.149L12.9335 810.503C9.94418 817.473 6.46677 821.942 0 830.407H47.7382L59.177 798.561H133.286L124.333 771.718H69.1364L97.9776 693.14L144.221 830.407H199.433C194.445 823.436 187.994 813.492 184.501 804.555L140.24 688.672ZM363.527 666.297H304.853C306.348 670.766 309.337 677.736 309.337 688.168V808.032C309.337 818.464 306.348 825.434 304.853 830.407H363.527C362.047 825.434 359.058 818.464 359.058 808.032V688.168C359.058 677.736 362.047 670.766 363.527 666.297ZM2118.87 666.297H2031.36C2032.87 670.766 2035.84 677.736 2035.84 688.168V808.032C2035.84 818.464 2032.87 825.434 2031.36 830.407H2118.87C2191.5 830.407 2204.94 780.182 2204.94 747.833C2204.92 715.53 2191.5 666.297 2118.87 666.297ZM2104.46 804.036H2085.56V692.622H2104.46C2125.32 692.622 2153.69 700.568 2153.69 748.321C2153.69 796.075 2125.34 804.036 2104.46 804.036ZM1617.76 666.297H1574.47V755.81L1498.41 666.297H1438.23C1439.72 670.766 1442.7 677.736 1442.7 688.168V808.032C1442.7 818.464 1439.72 825.434 1438.23 830.407H1481.48V721.021L1574.49 830.407H1617.77C1616.26 825.434 1613.31 818.464 1613.31 808.032V688.168C1613.29 677.736 1616.26 670.766 1617.76 666.297ZM1018.5 658.824C1009.56 656.261 994.128 654.202 979.212 654.355C930.97 654.858 875.271 687.695 875.271 748.337C875.271 809.024 930.97 838.353 979.212 838.841C994.128 839.024 1009.56 836.934 1018.5 834.403C1028.93 831.398 1039.88 829.903 1043.38 830.407V789.623C1034.91 797.569 1013.53 806.034 992.145 806.034C970.762 806.034 928.988 790.096 929.476 748.337C929.476 697.136 970.762 687.177 992.145 687.177C1013.53 687.177 1033.42 693.644 1043.38 701.59V662.774C1038.39 663.293 1028.93 661.798 1018.5 658.824ZM630.586 766.242C655.462 756.801 665.406 732.429 664.903 710.573C664.414 688.671 644.023 666.312 616.173 666.312H496.828C498.307 670.781 501.296 677.751 501.296 688.183V808.047C501.296 818.48 498.307 825.45 496.828 830.422H551.017V771.733H582.848L614.19 830.422H673.367C664.414 821.454 657.932 811.54 653.448 805.043L630.586 766.242ZM583.854 743.364H551.017V692.164H588.826C606.732 692.164 614.678 704.579 614.678 716.018C614.678 727.457 606.229 743.364 583.854 743.364Z" fill="black"/>
</svg>
