<svg width="2134" height="622" viewBox="0 0 2134 622" fill="none" xmlns="http://www.w3.org/2000/svg">
<path fill-rule="evenodd" clip-rule="evenodd" d="M41.9736 63.3813C41.9736 10.4776 0.833496 26.6379 0.833496 13.4217C0.833496 9.01195 3.77763 7.54643 6.7088 7.54643C22.8821 7.54643 37.5638 10.4776 53.7371 10.4776C87.5363 10.4776 121.336 7.54643 165.42 7.54643C256.532 7.54643 346.179 76.6104 346.179 172.133C346.179 289.691 290.345 371.984 147.794 371.984C121.336 371.984 94.8902 370.518 68.4319 370.518C64.0222 370.518 14.0626 371.984 11.1185 371.984C6.7088 371.984 5.24322 370.518 5.24322 367.574C5.24322 355.823 41.9865 367.574 41.9865 319.093V63.3813H41.9736ZM83.1266 297.045C83.1266 305.864 81.661 330.844 86.0708 335.253C103.71 351.414 141.919 358.755 165.433 358.755C238.906 358.755 307.983 319.08 307.983 200.044C307.983 86.8954 231.566 20.7626 134.578 20.7626C84.6052 20.7626 83.1396 29.582 83.1396 53.0962V297.045H83.1266ZM622.448 250.016C618.039 236.774 613.629 229.446 600.413 229.446H487.252C476.967 229.446 468.147 229.446 462.272 241.197L429.938 313.218C428.473 316.162 425.528 323.503 425.528 330.844C425.528 366.108 462.272 351.414 462.272 364.63C462.272 373.449 454.931 371.971 449.043 371.971C434.348 371.971 419.653 370.505 404.958 370.505C391.729 370.505 377.034 371.971 363.805 371.971C360.861 371.971 359.396 369.027 359.396 366.096C359.396 355.811 384.375 364.63 397.604 335.24L519.572 72.1747C550.427 7.52041 551.906 0.166626 559.247 0.166626C563.656 0.166626 568.066 14.8614 569.532 19.2711L676.818 283.802C684.158 302.907 690.047 324.955 701.797 342.581C717.958 366.083 747.36 354.332 747.36 367.561C747.36 371.971 744.416 371.971 740.006 371.971C719.436 371.971 697.388 370.505 676.818 370.505C663.588 370.505 648.894 371.971 635.665 371.971C632.72 371.971 623.914 371.971 623.914 367.561C623.914 354.332 654.769 360.22 654.769 339.65C654.769 329.365 644.484 305.851 638.596 291.156L622.448 250.016ZM484.32 198.578C479.911 204.453 484.32 207.397 490.196 207.397H591.593C603.344 207.397 603.344 202.988 600.413 197.112L550.44 72.1876C547.496 66.3123 544.565 66.3123 541.621 72.1876L484.32 198.578ZM1033.94 316.149C1070.68 371.984 1095.66 354.345 1095.66 366.108C1095.66 371.984 1066.26 371.984 1061.86 371.984C1025.12 371.984 1004.55 345.538 985.446 316.149L928.133 226.489C909.028 198.578 917.848 200.031 859.069 200.031C842.895 200.031 845.839 208.85 845.839 213.26V322.011C845.839 366.083 900.209 349.922 900.209 367.561C900.209 373.436 894.321 371.971 891.389 371.971C885.501 371.971 873.751 370.505 831.132 370.505C812.027 370.505 792.923 371.971 773.819 371.971C769.409 371.971 767.943 369.027 767.943 366.096C767.943 354.345 806.152 360.22 806.152 322.024V60.45C806.152 10.4775 760.589 31.0605 760.589 14.8872C760.589 10.4775 764.999 7.54643 770.874 7.54643C781.159 7.54643 778.215 10.4776 804.674 10.4776C834.063 10.4776 863.452 7.54643 889.898 7.54643C898.717 7.54643 1011.88 -2.73866 1011.88 97.1934C1011.88 136.868 983.955 172.146 947.211 185.362L1033.94 316.149ZM845.827 175.064C845.827 183.883 878.16 182.405 901.674 182.405C923.723 182.405 973.683 172.12 973.683 108.918C973.683 45.7293 925.189 25.1593 875.216 25.1593C857.577 25.1593 845.827 23.6937 845.827 44.2637V175.064ZM1157.37 63.3813C1157.37 10.4776 1114.77 26.6379 1114.77 13.4217C1114.77 9.01195 1119.18 7.54643 1122.11 7.54643C1138.27 7.54643 1152.96 10.4776 1167.68 10.4776C1201.47 10.4776 1235.27 7.54643 1279.37 7.54643C1370.45 7.54643 1460.11 76.6104 1460.11 172.133C1460.11 289.691 1404.28 371.984 1261.72 371.984C1235.27 371.984 1208.82 370.518 1182.38 370.518C1177.97 370.518 1129.46 371.984 1125.05 371.984C1120.64 371.984 1120.64 370.518 1120.64 367.574C1120.64 355.823 1157.37 367.574 1157.37 319.093V63.3813ZM1197.06 297.045C1197.06 305.864 1195.6 330.844 1200 335.253C1217.63 351.414 1257.31 358.755 1279.37 358.755C1352.83 358.755 1421.9 319.08 1421.9 200.044C1421.9 86.8954 1345.47 20.7626 1248.49 20.7626C1200.01 20.7626 1197.06 29.582 1197.06 53.0962V297.045ZM1562.98 157.438C1562.98 175.077 1561.51 175.077 1582.08 175.077H1637.94C1692.3 175.077 1677.62 133.924 1690.83 133.924C1693.78 133.924 1695.24 139.812 1695.24 144.209V236.774C1695.24 241.184 1693.78 242.662 1690.83 242.662C1674.67 242.662 1692.3 198.578 1648.23 198.578H1571.8C1561.51 198.578 1562.98 205.919 1562.98 214.738V308.795C1562.98 339.65 1558.57 351.401 1602.68 351.401C1721.71 351.401 1737.87 298.497 1745.21 298.497C1748.16 298.497 1749.62 304.385 1749.62 304.385C1749.62 323.49 1736.4 341.129 1723.18 354.345C1706.99 373.449 1695.24 371.971 1673.19 371.971C1633.52 371.971 1595.3 369.027 1555.64 370.505C1535.07 370.505 1514.5 371.971 1493.93 371.971C1488.02 371.971 1485.08 370.505 1485.08 367.561C1486.55 360.22 1490.96 361.686 1508.61 354.332C1521.84 346.991 1521.84 333.762 1521.84 308.782V75.1319C1521.84 51.6177 1521.84 26.6379 1495.39 22.2281C1490.96 20.7626 1479.21 20.7625 1479.21 14.8872C1479.21 10.4775 1482.15 7.54643 1496.83 7.54643C1593.83 7.54643 1621.77 10.4776 1642.34 10.4776C1652.62 10.4776 1701.1 7.54643 1715.83 7.54643C1720.24 7.54643 1721.7 13.4217 1721.7 19.297C1721.7 76.6104 1714.36 81.0202 1711.39 81.0202C1699.64 81.0202 1706.98 56.0274 1699.64 44.2768C1684.94 26.6379 1632.05 29.582 1611.48 29.582C1561.5 29.582 1562.98 28.1164 1562.98 61.9156V157.438ZM1814.27 108.931C1814.27 3.12365 1752.56 32.5132 1752.56 13.4087C1752.56 10.4646 1756.97 7.53346 1759.9 7.53346C1767.24 7.53346 1776.06 10.4646 1783.4 10.4646C1790.74 10.4646 1799.56 7.53346 1806.9 7.53346C1812.77 7.53346 1817.18 16.3529 1820.14 19.284L2065.56 292.622C2068.5 297.032 2071.43 298.497 2072.9 298.497C2072.9 298.497 2074.36 297.032 2074.36 292.622V78.076C2074.36 10.4775 2017.04 29.582 2017.04 13.4217C2017.04 9.01195 2018.5 7.54643 2022.91 7.54643C2037.63 7.54643 2052.33 10.4776 2068.49 10.4776C2086.11 10.4776 2108.16 7.54643 2121.38 7.54643C2124.32 7.54643 2125.79 9.01195 2125.79 13.4217C2125.79 26.6508 2096.4 16.3659 2096.4 54.5618V351.414C2096.4 367.574 2094.93 374.915 2090.52 374.915C2087.58 374.915 2083.18 371.971 2071.42 360.22L1850.98 110.397C1849.52 110.397 1843.64 101.577 1839.23 101.577C1837.77 101.577 1836.29 103.043 1836.29 113.328V323.49C1836.29 369.04 1881.84 351.401 1881.84 366.096C1881.84 367.561 1880.37 371.971 1875.96 371.971C1862.73 371.971 1849.52 370.505 1824.54 370.505C1805.41 370.505 1778.96 371.971 1776.03 371.971C1768.69 371.971 1768.69 369.027 1768.69 366.096C1768.69 348.47 1814.24 370.505 1814.24 298.497V108.931H1814.27Z" fill="black"/>
<path fill-rule="evenodd" clip-rule="evenodd" d="M40.5082 451.346C50.7932 451.346 68.4191 451.346 77.2515 452.811C96.356 455.756 106.641 466.041 106.641 485.132C106.641 504.224 91.9463 517.479 72.8418 520.423C59.6127 523.367 43.4523 523.367 40.5212 521.888V451.346H40.5082ZM16.981 618.889C21.3908 617.424 24.3349 617.424 28.7446 617.424C31.6888 617.424 36.0855 617.424 40.5082 618.889V532.173H49.3276L69.8977 557.153L100.766 595.349C106.641 602.69 111.051 610.044 116.926 618.876C121.336 617.411 127.211 617.411 131.621 617.411C136.03 617.411 140.44 617.411 146.328 618.876L141.919 611.509L128.676 596.815L75.773 530.695C102.231 524.82 128.676 511.59 128.676 480.709C128.676 455.73 111.051 442.513 71.3633 442.513H16.994V618.889H16.981ZM238.894 518.957H278.581C285.935 518.957 293.276 517.492 302.095 517.492C300.63 520.436 300.63 521.901 300.63 524.832C300.63 526.298 300.63 529.242 302.095 532.173C293.276 532.173 285.935 530.708 278.581 530.708H238.894V605.634C255.067 605.634 269.762 604.169 285.922 604.169C293.263 604.169 300.617 602.703 309.423 602.703C309.423 604.169 307.958 607.113 307.958 610.044C307.958 612.975 309.423 614.454 309.423 617.411H215.379V442.539H307.958C306.492 445.483 306.492 446.949 306.492 449.88C306.492 452.811 306.492 455.756 307.958 457.221C299.138 455.756 291.784 455.756 284.443 455.756L257.998 454.29H238.881V518.957H238.894ZM382.91 583.599C393.195 599.759 404.958 610.044 424.063 610.044C446.098 610.044 460.806 593.884 460.806 573.313C460.806 524.832 379.979 546.868 379.979 488.076C379.979 455.756 406.437 439.595 437.292 439.595C449.043 439.595 463.75 442.539 474.035 451.346C471.104 458.687 469.626 464.575 466.694 471.916H463.75C459.341 458.687 447.577 449.88 432.895 449.88C415.256 449.88 400.562 461.631 400.562 480.735C400.562 527.777 481.389 508.646 481.389 563.041C481.389 599.772 451.987 621.833 418.201 621.833C404.971 621.833 384.401 615.932 375.582 607.113C378.526 599.772 379.992 590.952 379.992 583.612H382.91V583.599ZM619.517 618.889C615.107 618.889 610.698 617.424 607.754 617.424C603.344 617.424 600.413 618.889 596.003 618.889V454.29C571.023 454.29 554.85 455.756 540.155 458.7C540.155 455.756 541.621 452.824 541.621 449.88C541.621 448.415 540.155 445.47 540.155 442.539H672.421V458.7C660.657 455.756 641.566 454.29 619.517 454.29V618.889ZM829.666 538.062H773.819L801.742 471.916L829.666 538.062ZM810.562 439.595H804.687L723.859 618.889C726.803 617.424 729.734 617.424 732.678 617.424C735.623 617.424 738.554 617.424 742.963 618.889C750.304 593.884 759.124 571.848 767.943 548.347H834.076C842.895 571.848 853.18 596.828 860.534 618.889C864.944 617.424 869.354 617.424 873.763 617.424C878.173 617.424 882.583 617.424 886.993 618.889L810.562 439.595ZM981.036 540.993C981.036 586.543 992.787 610.044 1036.88 610.044C1078.04 610.044 1092.73 580.654 1092.73 538.049V442.526C1095.68 442.526 1097.14 443.992 1100.07 443.992C1103 443.992 1104.48 442.526 1107.41 442.526V545.403C1107.41 595.362 1078.02 621.833 1032.46 621.833C1007.48 621.833 989.843 615.932 976.614 604.182C960.44 589.487 957.509 565.986 957.509 545.416V442.539C961.919 442.539 964.85 444.005 969.26 444.005C972.204 444.005 976.601 442.539 981.011 442.539V540.993H981.036ZM1222.04 451.346C1232.33 451.346 1249.95 451.346 1260.24 452.811C1279.37 455.756 1288.17 466.041 1288.17 485.132C1288.17 504.224 1273.45 517.479 1254.36 520.423C1242.61 523.367 1224.97 523.367 1222.04 521.888V451.346ZM1198.54 618.889C1202.95 617.424 1207.36 617.424 1210.29 617.424C1214.7 617.424 1217.63 617.424 1222.04 618.889V532.173H1230.86L1252.9 557.153L1282.31 595.349C1288.19 602.69 1292.6 610.044 1298.47 618.876C1302.88 617.411 1308.76 617.411 1313.17 617.411C1317.58 617.411 1323.45 617.411 1327.86 618.876L1323.45 611.509L1311.7 596.815L1258.78 530.695C1283.79 524.82 1310.24 511.59 1310.24 480.709C1310.24 455.73 1294.07 442.513 1254.37 442.513H1198.54V618.889ZM1485.08 538.062H1427.78L1455.69 471.916L1485.08 538.062ZM1465.99 439.595H1460.11L1379.29 618.889C1382.23 617.424 1385.16 617.424 1388.13 617.424C1391.08 617.424 1394.01 617.424 1398.42 618.889C1405.76 593.884 1414.58 571.848 1423.4 548.347H1488.04C1498.35 571.848 1508.63 596.828 1515.97 618.889C1520.38 617.424 1524.79 617.424 1529.2 617.424C1533.61 617.424 1538.02 617.424 1542.43 618.889L1465.99 439.595ZM1764.32 618.889H1756.98C1754.03 614.454 1748.16 608.578 1743.75 602.703L1632.07 479.257H1629.12V618.889C1626.18 617.424 1624.71 617.424 1621.78 617.424C1618.85 617.424 1617.37 617.424 1614.44 618.889V442.539H1624.73L1746.69 574.792H1749.64V442.539C1752.58 442.539 1754.05 444.005 1756.98 444.005C1759.91 444.005 1761.39 442.539 1764.32 442.539V618.889ZM1915.66 618.889C1911.25 618.889 1908.32 617.424 1903.91 617.424C1900.97 617.424 1896.57 618.889 1892.16 618.889V454.29C1867.18 454.29 1851.02 455.756 1836.33 458.7C1836.33 455.756 1837.79 452.824 1837.79 449.88C1837.79 448.415 1836.33 445.47 1836.33 442.539H1968.58V458.7C1956.83 455.756 1937.73 454.29 1915.66 454.29V618.889ZM2036.18 583.599C2045.02 599.759 2056.77 610.044 2077.34 610.044C2097.91 610.044 2112.61 593.884 2112.61 573.313C2112.61 524.832 2031.78 546.868 2031.78 488.076C2031.78 455.756 2058.25 439.595 2089.11 439.595C2102.34 439.595 2117.02 442.539 2125.84 451.346C2123.2 457.99 2121.23 464.881 2119.96 471.916H2117.02C2111.14 458.687 2099.39 449.88 2084.7 449.88C2067.07 449.88 2052.38 461.631 2052.38 480.735C2052.38 527.777 2133.18 508.646 2133.18 563.041C2133.18 599.772 2105.27 621.833 2070 621.833C2056.77 621.833 2036.19 615.932 2028.84 607.113C2030.3 599.772 2031.78 590.952 2033.27 583.612H2036.18V583.599Z" fill="black"/>
</svg>
