<svg width="1901" height="255" viewBox="0 0 1901 255" fill="none" xmlns="http://www.w3.org/2000/svg">
<path d="M0 0V215C80.1667 195.5 260.637 160.5 341.5 160.5C469.8 160.5 559.135 171.092 674 185.696C691.19 187.882 708.951 190.157 727.5 192.5C846.5 207.532 1071.1 226.3 1115.5 227.5C1171 229 1207 232.5 1248 234C1289 235.5 1376.5 232 1406.5 227.5C1436.5 223 1567 206.5 1636.5 183C1706 159.5 1746 147 1764 139C1790.53 127.207 1873.36 95.3891 1896.92 79.2309C1898.19 78.2969 1899.38 77.3861 1900.5 76.5V0H0Z" fill="#41209F"/>
<path d="M1115.5 227.5C1071.1 226.3 846.5 207.532 727.5 192.5C708.951 190.157 691.19 187.882 674 185.696C747.333 199.631 900.631 225.291 928.5 228C964.5 231.5 1000 241 1092 246C1140.83 249.5 1257.8 256.1 1335 254.5C1412.2 252.9 1540.5 223.5 1595 209C1698.24 181.533 1849.57 114.136 1896.92 79.2309C1873.36 95.3891 1790.53 127.207 1764 139C1746 147 1706 159.5 1636.5 183C1567 206.5 1436.5 223 1406.5 227.5C1376.5 232 1289 235.5 1248 234C1207 232.5 1171 229 1115.5 227.5Z" fill="#8782CB"/>
</svg>
