<svg width="1900" height="286" viewBox="0 0 1900 286" fill="none" xmlns="http://www.w3.org/2000/svg">
<path d="M0 184.5V286L1900 286V52C1663.5 93.8333 1230 176 1145 185C1099.14 189.855 977.194 188.386 936.5 183C936.5 183 850.176 172.524 796.5 164C722.5 152.249 637.5 134 637.5 134C537.5 116.5 475.5 94 308.5 91C167.518 88.4674 54 141.5 0 184.5Z" fill="#41209F"/>
<path d="M0 184.5C54 141.5 167.518 88.4674 308.5 91C475.5 94 537.5 116.5 637.5 134C637.5 134 722.5 152.249 796.5 164C850.176 172.524 936.5 183 936.5 183C977.194 188.386 1099.14 189.855 1145 185C1230 176 1663.5 93.8333 1900 52V0C1840.5 22 1667.5 60.5 1614.5 78.5C1561.5 96.5 1493 104 1411.5 127.5C1330 151 1163 174.5 1145 178C1130.6 180.8 1065.33 180.5 1034.5 180C994 183 882.5 164 846 157.5C816.8 152.3 603.167 103.333 500 79.5C444 66 368 62 308.5 62C227.3 62 110.5 83.5 0 142V184.5Z" fill="#8782CB"/>
</svg>
